<svg width="15" height="15" viewBox="0 0 15 15" fill="none" xmlns="http://www.w3.org/2000/svg">
<g clip-path="url(#clip0_100_15)">
<path d="M7.372 0C5.91396 0 4.48866 0.43236 3.27634 1.24241C2.06402 2.05245 1.11913 3.2038 0.561163 4.55086C0.00319415 5.89791 -0.142796 7.38018 0.141654 8.81021C0.426104 10.2402 1.12822 11.5538 2.15921 12.5848C3.1902 13.6158 4.50377 14.3179 5.9338 14.6023C7.36383 14.8868 8.84609 14.7408 10.1931 14.1828C11.5402 13.6249 12.6916 12.68 13.5016 11.4677C14.3116 10.2553 14.744 8.83004 14.744 7.372C14.7432 5.41707 13.9663 3.54243 12.5839 2.16009C11.2016 0.777741 9.32694 0.000795065 7.372 0V0ZM7.372 2.212C7.80954 2.212 8.23725 2.34176 8.60103 2.58486C8.96481 2.82796 9.24833 3.17349 9.41572 3.57774C9.58311 3.98198 9.62686 4.42679 9.54143 4.85591C9.456 5.28502 9.24522 5.67916 8.93577 5.98847C8.62632 6.29779 8.23208 6.50838 7.80293 6.59362C7.37378 6.67886 6.92899 6.63491 6.52481 6.46733C6.12064 6.29976 5.77524 6.01609 5.53231 5.65219C5.28937 5.2883 5.15981 4.86053 5.16 4.423C5.15974 4.13249 5.21678 3.84478 5.32787 3.57634C5.43895 3.30791 5.60189 3.06402 5.80736 2.85865C6.01283 2.65327 6.25679 2.49044 6.52527 2.37948C6.79376 2.26852 7.08149 2.21161 7.372 2.212V2.212ZM7.372 12.68C6.49612 12.6799 5.63387 12.4631 4.86213 12.0489C4.09039 11.6347 3.43315 11.0359 2.949 10.306C2.971 8.839 5.898 8.035 7.372 8.035C8.846 8.035 11.772 8.835 11.795 10.306C11.3109 11.0359 10.6536 11.6347 9.88188 12.0489C9.11013 12.4631 8.24788 12.6799 7.372 12.68V12.68Z" fill="#DCE2ED"/>
</g>
<defs>
<clipPath id="clip0_100_15">
<rect width="14.744" height="14.744" fill="white"/>
</clipPath>
</defs>
</svg>
